<?xml version="1.0" standalone="no"?>
<!DOCTYPE svg PUBLIC "-//W3C//DTD SVG 20010904//EN"
 "http://www.w3.org/TR/2001/REC-SVG-20010904/DTD/svg10.dtd">
<svg version="1.0" xmlns="http://www.w3.org/2000/svg"
 width="200.000000pt" height="200.000000pt" viewBox="0 0 200.000000 200.000000"
 preserveAspectRatio="xMidYMid meet">

<g transform="translate(0.000000,200.000000) scale(0.100000,-0.100000)"
fill="#000000" stroke="none">
<path d="M915 1865 c33 -19 165 -94 293 -167 l232 -132 0 -374 c0 -205 4 -372
8 -370 5 2 48 26 95 53 l87 50 -2 374 -3 374 -200 113 -200 114 -185 0 -185
-1 60 -34z"/>
<path d="M536 1772 l-199 -117 -94 -164 c-51 -90 -92 -165 -91 -166 2 -2 131
71 288 162 157 91 292 167 302 170 14 4 154 -72 308 -167 25 -16 111 -67 193
-114 l147 -85 0 113 0 114 -317 183 c-174 101 -321 185 -327 186 -6 1 -100
-51 -210 -115z"/>
<path d="M435 1407 l-310 -183 -3 -236 -2 -236 92 -160 93 -160 3 343 2 343
168 99 c92 55 233 137 314 184 80 46 144 87 142 90 -7 11 -166 99 -178 98 -6
0 -150 -82 -321 -182z"/>
<path d="M1690 1214 l0 -349 -158 -96 c-86 -53 -228 -136 -314 -185 -87 -49
-158 -92 -158 -96 0 -3 41 -30 91 -59 69 -39 96 -50 108 -42 9 5 154 90 324
188 l307 179 0 232 0 232 -96 169 c-53 92 -98 170 -100 172 -2 2 -4 -153 -4
-345z"/>
<path d="M455 1145 l-90 -53 -3 -374 -2 -375 197 -111 197 -112 192 2 192 3
-287 162 -286 162 -3 375 c-1 207 -6 376 -10 375 -4 0 -47 -25 -97 -54z"/>
<path d="M620 583 l1 -108 311 -180 c171 -99 314 -181 319 -183 4 -2 98 49
208 113 l200 116 87 152 c47 84 89 156 92 161 2 4 -15 -3 -39 -17 -551 -322
-541 -316 -563 -303 -11 8 -140 82 -286 166 -146 84 -280 161 -297 172 l-33
20 0 -109z"/>
</g>
</svg>
